<?xml version="1.0" encoding="utf-8"?>
<!-- Generator: Adobe Illustrator 16.0.0, SVG Export Plug-In . SVG Version: 6.00 Build 0)  -->
<!DOCTYPE svg PUBLIC "-//W3C//DTD SVG 1.1//EN" "http://www.w3.org/Graphics/SVG/1.1/DTD/svg11.dtd">
<svg version="1.1" id="Layer_1" xmlns="http://www.w3.org/2000/svg" xmlns:xlink="http://www.w3.org/1999/xlink" x="0px" y="0px"
	 width="1056px" height="200px" viewBox="0 0 1056 200" enable-background="new 0 0 1056 200" xml:space="preserve">
<path fill="#FECD13" d="M319.961,125.984c0,1.83,0,3.66,0,5.923c7.213,0.174,14.451,0.013,21.841,0.096c0,7.265,0,14.376,0,21.731
	c7.387,0,14.615,0,22.012,0c0-7.055,0-14.164,0-21.617c7.385,0,14.619,0,22.001,0c0-14.774,0-29.209,0-43.986
	c7.373,0,14.607,0,21.989,0c0-14.775,0-29.21,0-43.986c7.373,0,14.607,0,22.144,0c0-14.609,0-28.876,0-43.145
	c7.333,0,14.665,0,21.997,0c0,6.823,0,13.646,0,20.849c7.206,0.353,14.445-0.002,21.832,0.21c0,14.537,0,28.972,0,43.772
	c7.371,0.37,14.611,0.007,21.997,0.224c0,14.536,0,28.97,0,43.768c7.372,0.378,14.611,0.006,21.997,0.229
	c0,14.534,0,28.968,0,43.734c7.37,0.433,14.611,0.041,22.164,0.246c0,7.39,0,14.668,0,21.946c-29.33,0-58.659,0-87.989,0
	c0-7.153,0-14.308,0-21.805c7.198-0.474,14.438,0.018,21.998-0.285c0-1.996,0-3.953,0-5.906c0-5.283,0-10.566,0-15.828
	c-16.091-0.653-61.719-0.405-65.992,0.344c0,5.161,0,10.322,0,15.484c0,1.83,0,3.658,0,5.525c0.103,0.096,0.212,0.229,0.35,0.312
	c0.128,0.08,0.287,0.152,0.432,0.152c6.963,0.008,13.927,0.008,21.215,0.008c0,7.443,0,14.721,0,21.996
	c-43.995,0-87.989,0-131.983,0c0-9.332,0-18.664,0-27.996c0-5.281,0-10.563,0-15.824c-14.427-0.598-39.864-0.389-43.994,0.345
	c0,5.16,0,10.319,0,15.479c0,1.83,0,3.66,0,5.526c0.103,0.095,0.212,0.228,0.35,0.312c0.127,0.08,0.286,0.154,0.432,0.154
	c6.963,0.008,13.927,0.006,21.215,0.006c0,7.444,0,14.721,0,21.998c-29.33,0-58.659,0-87.989,0c0-7.162,0-14.322,0-21.535
	c0.097-0.086,0.208-0.215,0.347-0.301c0.129-0.078,0.287-0.154,0.432-0.154c6.969-0.008,13.938-0.008,21.218-0.008
	c0-31.453,0-62.721,0-93.988c0-5.256,0-10.512,0-15.998c-7.508,0-14.752,0-21.997,0c0-7.159,0-14.318,0-21.476
	c4.617-0.828,85.61-1.127,109.948-0.396c0,7.215,0,14.452,0,21.849c7.457,0,14.571,0,21.859,0c0,7.274,0,14.387,0,21.962
	c7.39,0.133,14.626,0.002,22.174,0.082c0,14.757,0,29.363,0,43.97c-7.245,0-14.489,0-21.997,0
	C319.961,115.473,319.961,120.729,319.961,125.984z M429.947,81.99c0,9.277,0,18.554,0,27.996c7.299,0,14.267,0.002,21.235-0.006
	c0.144,0,0.304-0.082,0.426-0.168c0.13-0.092,0.226-0.235,0.336-0.355c0-9.155,0-18.312,0-27.466c0-5.281,0-10.561,0-16.012
	c-7.561,0.06-14.785-0.069-21.997,0.083C429.947,71.674,429.947,76.832,429.947,81.99z M275.966,65.992c0-2,0-4,0-6
	c0-5.28,0-10.56,0-16.011c-7.56,0.06-14.785-0.069-21.997,0.083c0,5.613,0,10.771,0,15.928c0,16.608,0,33.604,0,50.195
	c14.218-0.051,39.468,0.033,43.994,0.062c0-9.159,0-19.102,0-28.26c0-5.256,0-10.513,0-15.998
	C290.455,65.992,283.211,65.992,275.966,65.992z"/>
<path fill="#FECD13" d="M55.994,59.992c0,23.935,0,47.869,0,71.974c7.423,0,14.538,0,21.824,0c0,7.278,0,14.394,0,21.476
	c4.274,0.738,31.145,0.943,44.168,0.35c0-16.59,0-33.197,0-49.805c0-5.266,0-10.533,0-15.997c-14.863,0-29.429,0-43.994,0
	c0-7.162,0-14.325,0-21.487c4.235-0.732,73.028-0.996,87.989-0.321c0,29.256,0,58.528,0,87.799c-7.245,0-14.489,0-21.998,0
	c0,5.485,0,10.742,0,15.998c0,2,0,4,0,6c-29.33,0-58.659,0-87.989,0c0-2,0-4,0-6c0-5.256,0-10.513,0-15.998
	c-7.508,0-14.752,0-21.997,0c0-2,0-4,0-5.998c0-5.258,0-10.514,0-15.998c-7.508,0-14.752,0-21.997,0c0-29.33,0-58.66,0-87.989
	c7.27,0,14.54,0,22.136,0c0-7.53,0-14.756,0-22.078c22.068,0,43.806,0,65.853,0c0-7.042,0-13.979,0-20.917
	c7.333,0,14.665,0,21.997,0c0,14.331,0,28.663,0,42.995c-21.893,0-43.786,0-65.992,0C55.994,49.448,55.994,54.72,55.994,59.992z"/>
<path fill="#FECD13" d="M957.88,109.986c0-21.817,0-43.632,0-65.795c7.202-0.477,14.447,0.012,21.997-0.289
	c0-14.349,0-28.626,0-42.903c14.665,0,29.329,0,43.994,0c0,6.823,0,13.646,0,20.845c7.205,0.361,14.445-0.003,21.998,0.22
	c0,7.373,0,14.651,0,21.93c-7.245,0-14.49,0-21.998,0c0,5.485,0,10.742,0,15.998c0,9.332,0,18.665,0,27.997
	c-7.244,0-14.489,0-21.997,0c0,5.486,0,10.742,0,15.997c0,2,0,4,0,6C987.209,109.986,972.545,109.986,957.88,109.986z"/>
<path fill="#AD8700" d="M12,131.982c7.245,0,14.489,0,21.997,0c0,5.485,0,10.742,0,15.998c-7.333,0-14.665,0-21.997,0
	C12,142.648,12,137.314,12,131.982z"/>
<path fill="#FECD13" d="M715.91,175.979c0-7.162,0-14.322,0-21.535c0.097-0.086,0.208-0.215,0.348-0.301
	c0.128-0.078,0.286-0.154,0.433-0.154c6.969-0.008,13.938-0.008,21.219-0.008c0-31.453,0-62.721,0-93.987c0-5.256,0-10.512,0-15.998
	c-7.509,0-14.754,0-21.998,0c0-7.162,0-14.323,0-21.484c4.339-0.761,71.038-1.032,87.989-0.343c0,7.263,0,14.544,0,21.827
	c-7.244,0-14.489,0-21.997,0c0,5.485,0,10.742,0,15.998c0,31.266,0,62.53,0,93.892c22.078,0,43.849,0,65.806,0
	c0-7.138,0-14.248,0-21.701c7.396-0.438,14.627-0.043,22.183-0.25c0,14.826,0,29.437,0,44.045
	C818.564,175.979,767.237,175.979,715.91,175.979z"/>
<path fill="#FECD13" d="M583.928,175.979c0-7.162,0-14.322,0-21.535c0.097-0.086,0.209-0.215,0.348-0.301
	c0.129-0.078,0.285-0.154,0.432-0.154c6.97-0.008,13.939-0.008,21.219-0.008c0-31.453,0-62.721,0-93.987c0-5.256,0-10.512,0-15.998
	c-7.508,0-14.753,0-21.997,0c0-7.162,0-14.323,0-21.484c4.338-0.761,71.037-1.032,87.988-0.343c0,7.263,0,14.544,0,21.827
	c-7.244,0-14.489,0-21.997,0c0,5.485,0,10.742,0,15.998c0,31.268,0,62.534,0,93.973c7.425,0,14.54,0,21.997,0
	c0,7.448,0,14.729,0,22.013C642.587,175.979,613.257,175.979,583.928,175.979z"/>
<path fill="#FECD13" d="M935.883,175.979c0-14.488,0-28.979,0-43.467c4.075-0.746,29.859-0.96,43.994-0.347
	c0,14.593,0,29.202,0,43.812C965.212,175.979,950.548,175.979,935.883,175.979z"/>
<path fill="#AD8700" d="M55.994,59.992c0-5.272,0-10.544,0-15.998c22.206,0,44.099,0,65.992,0c0,5.272,0,10.544,0,15.998
	C99.78,59.992,77.888,59.992,55.994,59.992z"/>
<path fill="#AD8700" d="M407.95,147.98c0-5.162,0-10.322,0-15.483c4.273-0.749,49.899-0.997,65.992-0.345c0,5.263,0,10.546,0,15.828
	C451.944,147.98,429.947,147.98,407.95,147.98z"/>
<path fill="#AD8700" d="M253.969,147.98c0-5.16,0-10.319,0-15.479c4.13-0.731,29.567-0.94,43.994-0.344c0,5.26,0,10.542,0,15.823
	C283.299,147.98,268.634,147.98,253.969,147.98z"/>
<path fill="#AD8700" d="M957.88,109.986c14.665,0,29.329,0,43.994,0c0,5.16,0,10.318,0,15.479
	c-4.13,0.732-29.567,0.941-43.994,0.345C957.88,120.55,957.88,115.268,957.88,109.986z"/>
<path fill="#AD8700" d="M77.992,87.989c14.565,0,29.131,0,43.994,0c0,5.463,0,10.731,0,15.997c-14.565,0-29.131,0-43.994,0
	C77.992,98.523,77.992,93.256,77.992,87.989z"/>
<path fill="#AD8700" d="M319.961,125.984c0-5.258,0-10.514,0-15.998c7.508,0,14.752,0,21.997,0c0,5.256,0,10.512,0,15.998
	C334.45,125.984,327.206,125.984,319.961,125.984z"/>
<path fill="#AD8700" d="M1001.874,103.986c0-5.256,0-10.512,0-15.999c7.508,0,14.753,0,21.997,0c0,5.256,0,10.512,0,15.999
	C1016.363,103.986,1009.118,103.986,1001.874,103.986z"/>
<path fill="#AD8700" d="M33.997,153.98c7.245,0,14.489,0,21.997,0c0,5.484,0,10.742,0,15.998c-7.245,0-14.489,0-21.997,0
	C33.997,164.493,33.997,159.236,33.997,153.98z"/>
<path fill="#AD8700" d="M143.983,169.979c0-5.256,0-10.513,0-15.998c7.508,0,14.753,0,21.998,0c0,5.256,0,10.514,0,15.998
	C158.472,169.979,151.228,169.979,143.983,169.979z"/>
<path fill="#AD8700" d="M1023.871,59.992c0-5.256,0-10.512,0-15.998c7.508,0,14.753,0,21.998,0c0,5.256,0,10.512,0,15.998
	C1038.359,59.992,1031.115,59.992,1023.871,59.992z"/>
<path fill="#AD8700" d="M781.902,59.992c0-5.256,0-10.512,0-15.998c7.508,0,14.753,0,21.997,0c0,5.256,0,10.512,0,15.998
	C796.392,59.992,789.146,59.992,781.902,59.992z"/>
<path fill="#AD8700" d="M715.91,43.995c7.244,0,14.489,0,21.998,0c0,5.485,0,10.742,0,15.998c-7.245,0-14.49,0-21.998,0
	C715.91,54.507,715.91,49.25,715.91,43.995z"/>
<path fill="#AD8700" d="M649.919,59.992c0-5.256,0-10.512,0-15.998c7.508,0,14.753,0,21.997,0c0,5.256,0,10.512,0,15.998
	C664.408,59.992,657.163,59.992,649.919,59.992z"/>
<path fill="#AD8700" d="M583.928,43.995c7.244,0,14.489,0,21.997,0c0,5.485,0,10.742,0,15.998c-7.244,0-14.489,0-21.997,0
	C583.928,54.507,583.928,49.25,583.928,43.995z"/>
<path fill="#AD8700" d="M187.978,43.995c7.245,0,14.489,0,21.997,0c0,5.485,0,10.742,0,15.998c-7.245,0-14.489,0-21.997,0
	C187.978,54.507,187.978,49.25,187.978,43.995z"/>
<path fill="#AD8700" d="M451.944,81.99c-7.333,0-14.665,0-21.997,0c0-5.158,0-10.315,0-15.929
	c7.212-0.152,14.437-0.023,21.997-0.083C451.944,71.429,451.944,76.709,451.944,81.99z"/>
<path fill="#AD8700" d="M297.963,81.99c-7.245,0-14.489,0-21.997,0c0-5.486,0-10.742,0-15.998c7.245,0,14.489,0,21.997,0
	C297.963,71.477,297.963,76.733,297.963,81.99z"/>
<path fill="#AD8700" d="M275.966,59.992c-7.333,0-14.665,0-21.997,0c0-5.157,0-10.315,0-15.928
	c7.212-0.152,14.438-0.023,21.997-0.083C275.966,49.432,275.966,54.712,275.966,59.992z"/>
<rect x="55.994" y="174.509" fill="#AD8700" width="87.989" height="15.487"/>
<rect x="297.963" y="174.509" fill="#AD8700" width="131.983" height="15.49"/>
<rect x="451.944" y="174.509" fill="#AD8700" width="87.988" height="15.487"/>
<rect x="583.928" y="174.509" fill="#AD8700" width="87.988" height="15.487"/>
<rect x="715.91" y="174.509" fill="#AD8700" width="153.979" height="15.491"/>
<rect x="935.883" y="174.509" fill="#AD8700" width="43.994" height="15.479"/>
<rect x="187.978" y="174.509" fill="#AD8700" width="87.989" height="15.487"/>
<rect x="55.994" y="43.995" fill="#AD8700" width="65.992" height="15.997"/>
</svg>
